<svg xmlns="http://www.w3.org/2000/svg" xmlns:xlink="http://www.w3.org/1999/xlink" version="1.1" x="0px" y="0px" viewBox="0 0 64 80" style="enable-background:new 0 0 64 64;" xml:space="preserve"><g><rect x="36" y="18" width="2" height="2"/><rect x="26" y="18" width="2" height="2"/><path d="M38,26c0-1.654-1.346-3-3-3h-6c-1.654,0-3,1.346-3,3v3h12V26z M36,27h-8v-1c0-0.552,0.449-1,1-1h6c0.551,0,1,0.448,1,1V27z   "/><path d="M63,47h-4v-4h-4V30c0-1.654-1.346-3-3-3h-0.184c-0.414-1.161-1.514-2-2.816-2h-2c-1.654,0-3,1.346-3,3s1.346,3,3,3h2   c1.302,0,2.402-0.839,2.816-2H52c0.551,0,1,0.448,1,1v13h-1.612l-0.941-2.822c-1.04-3.119-3.694-5.421-6.929-6.009l-5.541-1.007   l0.015-0.781c3.033-1.758,5.222-4.8,5.827-8.381H44c2.206,0,4-1.794,4-4V10c0-2.757-2.243-5-5-5h-0.515C40.408,2.486,37.273,1,34,1   h-4c-7.72,0-14,6.28-14,14v5c0,2.206,1.794,4,4,4h0.181c0.604,3.578,2.791,6.618,5.819,8.376v0.789l-5.518,1.003   c-3.234,0.588-5.889,2.89-6.929,6.009L12.612,43H11V30c0-0.552,0.449-1,1-1h0.184c0.414,1.161,1.514,2,2.816,2h2   c1.654,0,3-1.346,3-3s-1.346-3-3-3h-2c-1.302,0-2.402,0.839-2.816,2H12c-1.654,0-3,1.346-3,3v13H5v4H1v10h4v6h2v-6h12v4h26v-4h8v-2   h-8v-4H19v4H3v-6h2h9h36h9h2v6h-6v2h2v6h2v-6h4V47z M49,29h-2c-0.551,0-1-0.448-1-1s0.449-1,1-1h2c0.551,0,1,0.448,1,1   S49.551,29,49,29z M15,27h2c0.551,0,1,0.448,1,1s-0.449,1-1,1h-2c-0.551,0-1-0.448-1-1S14.449,27,15,27z M21,53h22v6H21V53z    M40.81,37.592l-2.951,1.967l0.964,3.857l-4.232,1.814l3.104-10.088l2.447,0.445L40.81,37.592z M23.19,37.592l0.668-2.005   l2.486-0.452l3.065,10.095l-4.232-1.814l0.964-3.857L23.19,37.592z M28.911,36.809L32,39.28l3.089-2.471L32,46.849L28.911,36.809z    M44,22v-4c1.103,0,2,0.897,2,2S45.103,22,44,22z M30,3h4c2.817,0,5.509,1.346,7.2,3.601L41.5,7H43c1.654,0,3,1.346,3,3v6.556   C45.409,16.212,44.732,16,44,16v-2h-1c-0.853,0-1.619-0.474-2-1.236L39.618,10H37.5l-0.3,0.4C35.51,12.654,32.818,14,30,14h-7   c-1.302,0-2.402,0.839-2.816,2H20c-0.732,0-1.409,0.212-2,0.556V15C18,8.383,23.383,3,30,3z M18,20c0-1.103,0.897-2,2-2v4   C18.897,22,18,21.103,18,20z M22,22v-5c0-0.552,0.449-1,1-1h7c3.241,0,6.345-1.456,8.421-3.923l0.791,1.581   c0.569,1.138,1.591,1.937,2.789,2.224V22c0,5.514-4.486,10-10,10S22,27.514,22,22z M32,34c1.404,0,2.747-0.255,4-0.7v0.219   l-4,3.201l-4-3.201V33.3C29.253,33.745,30.596,34,32,34z M7,47v-2h5v2H7z M14,45.163l1.451-4.352   c0.809-2.426,2.874-4.217,5.389-4.675l0.775-0.141l-0.805,2.413l3.049,2.033l-1.036,4.143L28.461,47H21.18l0.806-4.836   l-1.973-0.328L19.153,47H14V45.163z M44.847,47l-0.861-5.164l-1.973,0.328L42.82,47h-7.281l5.638-2.416l-1.036-4.143l3.049-2.033   l-0.805-2.413l0.775,0.141c2.515,0.458,4.58,2.249,5.389,4.675L50,45.162V47H44.847z M52,47v-2h5v2H52z"/></g></svg>